<svg id="Ebene_1" data-name="Ebene 1" xmlns="http://www.w3.org/2000/svg" viewBox="0 0 126.91 73.25"><defs><style>.cls-1{fill:#fff;stroke:#000;stroke-miterlimit:10;}</style></defs><title>antrieb</title><path class="cls-1" d="M-117.26,368.74c0.51-16.25-4.45-30.06-15.44-41.84l-5.56,5.51a49.66,49.66,0,0,1,13.2,36.33h7.8Z" transform="translate(203.83 -296)"/><path class="cls-1" d="M-200.48,305.59h-0.83a39.41,39.41,0,0,0-2,5.15,2.76,2.76,0,0,0,.91,2.45,3.65,3.65,0,0,0,3,0,2.77,2.77,0,0,0,.93-2.46A38.52,38.52,0,0,0-200.48,305.59Z" transform="translate(203.83 -296)"/><path class="cls-1" d="M-132.41,323l-9.86,9.76-1.58-1.1-14.34,14.1c-4.62-4.64-9.13-9.14-13.56-13.72a3.83,3.83,0,0,1-.66-2.24c-0.38-5.22-.81-10.43-1-15.66-0.06-1.92-.8-2.63-2.53-3.1-8.17-2.22-16.3-4.56-24.8-7l1-5.82c5.9,0.49,11.63,1,17.34,1.45q13.74,1.21,27.48,2.49a4.22,4.22,0,0,1,2.43.84C-145.71,309.72-139,316.42-132.41,323Zm-34.53-8.83c0.3,4.56.59,9.12,0.94,13.67a2.55,2.55,0,0,0,.64,1.43c2.24,2.44,4.54,4.83,6.62,7l9.9-9.57-6.24-5.92c-1.42,3.88-3.54,7.42-7.42,9.76a4.41,4.41,0,0,1,.13-2.3,43.87,43.87,0,0,0,1.91-5.56c1.26-6.8.77-7.44-5.77-8.78A3.22,3.22,0,0,0-166.94,314.21Z" transform="translate(203.83 -296)"/><path class="cls-1" d="M-117.26,368.74h-7.8a49.66,49.66,0,0,0-13.2-36.33l5.56-5.51C-121.71,338.68-116.75,352.49-117.26,368.74Z" transform="translate(203.83 -296)"/><path class="cls-1" d="M-200.48,305.59a38.52,38.52,0,0,1,2,5.14,2.77,2.77,0,0,1-.93,2.46,3.65,3.65,0,0,1-3,0,2.76,2.76,0,0,1-.91-2.45,39.41,39.41,0,0,1,2-5.15h0.83Z" transform="translate(203.83 -296)"/><path class="cls-1" d="M-119.42,332.22a14.07,14.07,0,0,0,8.59,2.93,9.39,9.39,0,0,0,6.36-2.49l15.31-14.08c0.11-.11.21-0.23,0.41-0.46l-3.85-4.19,2.07-1.9c1.19-1.09,2.4-2.17,3.56-3.28s1.28-2.47.33-3.48a2.38,2.38,0,0,0-3.51,0c-1.55,1.4-3.08,2.82-4.62,4.23l-0.91.84-4.13-4.5c1.78-1.63,3.55-3.24,5.29-4.87a4.26,4.26,0,0,0,.88-1.08,2.14,2.14,0,0,0-.44-2.74,2.07,2.07,0,0,0-2.64-.36,13.84,13.84,0,0,0-2,1.62c-1.43,1.28-2.84,2.59-4.34,4l-3.56-3.88c-0.41.34-.75,0.59-1.06,0.88q-7.24,6.61-14.48,13.24c-3.79,3.48-4.49,9.09-1.78,14.16,0.25,0.46.52,0.91,0.85,1.48-0.3.3-.61,0.64-0.94,1-3.4,3.22-5.76,5.38-10.19,9.69-3.33,3.24-5.33,7.25-4.66,12.19,0.79,5.81,5.45,10.55,11.75,12a14.34,14.34,0,0,0,13.06-3c2.33-1.93,4.5-4.05,6.77-6.06a38.36,38.36,0,0,1,3.9-3.25c3.19-2.14,6.52-1.47,9.74.21,3,1.55,5.25,4,7.44,6.49,1.28,1.46,2.53,3,3.87,4.36s2.55,1.66,3.84.57a2.61,2.61,0,0,0,.2-4.11c-3.82-4.22-7.26-8.9-12.36-11.74-4.54-2.53-9.33-3.52-14-1a35.48,35.48,0,0,0-5.9,4.46c-2.44,2-4.7,4.31-7.19,6.3-4.68,3.73-12.56,1.71-15.14-3.83-1.43-3.08-.72-5.9,1.22-8.38a39.17,39.17,0,0,1,3.94-4.22C-125.07,337.35-122.25,334.83-119.42,332.22Z" transform="translate(203.83 -296)"/></svg>