<svg id="Ebene_1" data-name="Ebene 1" xmlns="http://www.w3.org/2000/svg" viewBox="0 0 47.21 51.15"><defs><style>.cls-1{fill:#fff;}</style></defs><title>getriebe</title><path class="cls-1" d="M-46.75,417.91q0-12,0-24a0.69,0.69,0,0,0,0-.37,1.62,1.62,0,0,0-.73-0.67,1.42,1.42,0,0,0-.74.65,1.06,1.06,0,0,0,0,.55q0,11.19,0,22.38a5.44,5.44,0,0,0,.22,1.07,10.3,10.3,0,0,1-1.19.14c-6.46,0-12.92,0-19.38,0a0.81,0.81,0,0,1-1-1c0-4.62,0-9.24,0-13.85q0-4.45,0-8.89c0-.53,0-1.08-0.72-1.09s-0.81.54-.78,1.12c0,0.12,0,.25,0,0.37q0,24.1,0,48.2a1.79,1.79,0,0,0,0,.83,1.28,1.28,0,0,0,.77.62,1,1,0,0,0,.64-0.62,2.46,2.46,0,0,0,0-.93c0-7.39,0-14.79,0-22.18,0-.79.16-1.08,1-1.08,6.46,0,12.92,0,19.38,0a6.84,6.84,0,0,1,1,.15c0,0.22-.06.43-0.06,0.65q0,11.46,0,22.92a0.71,0.71,0,0,0,0,.37,1.71,1.71,0,0,0,.68.7,1.43,1.43,0,0,0,.78-0.71,2.19,2.19,0,0,0,0-.92q0-11,0-22a11,11,0,0,1,.17-1.37,9.5,9.5,0,0,0,1.36.2c6.21,0,12.42,0,18.63,0,1,0,1.18.31,1.18,1.22,0,7.36,0,14.73,0,22.09a2.25,2.25,0,0,0,.06.92,1,1,0,0,0,.69.58,1.16,1.16,0,0,0,.71-0.58,1.55,1.55,0,0,0,0-.73q0-24.2,0-48.39c0-.6.17-1.42-0.75-1.42s-0.74.84-.74,1.43q0,11,0,21.9c0,1.65.12,1.48-1.43,1.48H-45.49A8,8,0,0,0-46.75,417.91Z" transform="translate(71.11 -392.88)"/></svg>