<svg id="Ebene_1" data-name="Ebene 1" xmlns="http://www.w3.org/2000/svg" viewBox="0 0 146.68 86.74"><defs><style>.cls-1{fill:#fff;}</style></defs><title>modell</title><path class="cls-1" d="M-190,417.94c1.45-.41-2.66-3.51-2.66-3.51-2.74-1.45-23.53-7.93-24.31-7.66-2.95,1,3.06,7.05,5,8.15S-191.43,418.34-190,417.94Z" transform="translate(226.7 -363.54)"/><path class="cls-1" d="M-81.31,383.41a4.25,4.25,0,0,0-3.06-1.7c-1.09-.11-2.38-0.17-3.8-0.17-3.69,0-7.14.36-7.29,0.38a1.08,1.08,0,0,0-.76.43,1.09,1.09,0,0,0-.21.84c0.35,2.21.37,5.51-.43,7-1.26-2-4-6.42-6.92-10.82-8.52-12.68-10.66-13.19-11.69-13.43-3.58-.84-28.57-2-36-2.27v-0.15l-1.85.08-1.85-.08v0.15c-7.45.32-32.45,1.43-36,2.27-1,.24-3.18.75-11.69,13.43-3,4.4-5.67,8.77-6.92,10.82-0.8-1.5-.77-4.81-0.43-7a1.1,1.1,0,0,0-.21-0.84,1.09,1.09,0,0,0-.76-0.43c-0.15,0-3.6-.38-7.29-0.38-1.43,0-2.71.06-3.81,0.17a4.26,4.26,0,0,0-3.06,1.7c-1.93,2.57-1.16,7.06-1.07,7.57a1.1,1.1,0,0,0,.68.82l9.34,3.69a45.78,45.78,0,0,0-6.12,5.32c-0.72.85-2.06,2.44-1.4,18.06,0.31,7.4.95,14.52,1,14.59l0.17,1.92,3.46-.31c9.18,0.75,39.65,3,73.65,3,19.56,0,40.27-.76,58.77-3l3.1,0.28,0.17-1.92c0-.07.64-7.19,1-14.59,0.66-15.62-.68-17.21-1.4-18.06a45.85,45.85,0,0,0-6.12-5.32l9.34-3.69a1.1,1.1,0,0,0,.68-0.82C-80.15,390.47-79.38,386-81.31,383.41Zm-109-13.71c2.88-.65,23.61-1.69,37-2.24,13.35,0.55,34.07,1.59,37,2.24,2.11,0.9,9.49,11.5,15.69,21.6-8.88-.32-34.72-1.19-51.55-1.23h-2.2c-16.83,0-42.66.91-51.55,1.23C-199.8,381.21-192.41,370.61-190.31,369.7ZM-224.39,390c-0.17-1.39-.23-3.94.76-5.25a2,2,0,0,1,1.52-.83c1-.1,2.23-0.16,3.58-0.16,2.33,0,4.62.16,5.93,0.27-0.21,2-.33,5.75,1.17,7.79-0.79.56-1.82,1.3-3,2.14Zm135.6,11.65-27.62,10.63,0,0a0.68,0.68,0,0,0-.21.13c-0.56.5-1.07,1-1.58,1.53a20.52,20.52,0,0,0-1.46,1.67,6.35,6.35,0,0,0-1.15,2.12,2.07,2.07,0,0,0-.05.79,1.47,1.47,0,0,0,.43.85,1.61,1.61,0,0,0,.35.26l0.2,0.1,0.14,0a3.45,3.45,0,0,0,.66.14,15.29,15.29,0,0,0,2.22.06c0.72,0,1.44-.06,2.15-0.12,1.43-.11,2.85-0.27,4.26-0.45q4.24-.54,8.44-1.35c1.4-.27,2.79-0.57,4.17-0.92,0.69-.18,1.38-0.36,2.06-0.57a14.14,14.14,0,0,0,2-.75,14,14,0,0,1-2,.65c-0.69.18-1.38,0.33-2.08,0.47-1.39.28-2.79,0.51-4.19,0.71q-4.21.6-8.45,0.92c-1.41.11-2.83,0.19-4.23,0.23-0.7,0-1.41,0-2.1,0a14.2,14.2,0,0,1-2-.16l-0.22,0-0.1,0-0.06,0-0.11,0,0,0-0.07-.06a0.13,0.13,0,0,1,0-.09,0.78,0.78,0,0,1,0-.26,5.24,5.24,0,0,1,1-1.54,18.54,18.54,0,0,1,1.42-1.47c0.46-.44.95-0.86,1.43-1.25l28.91-9.48c0.74,4,.32,16.34-0.62,27.41-4.65.55-9.43,1-14.31,1.39h-95.89c-10.23-.58-17.93-1.17-21.7-1.48-0.93-11-1.35-23.34-.61-27.33l28.91,9.48c0.48,0.4,1,.82,1.43,1.25a18.61,18.61,0,0,1,1.42,1.47,5.21,5.21,0,0,1,1,1.54,0.81,0.81,0,0,1,0,.26,0.14,0.14,0,0,1,0,.09l-0.07.06,0,0-0.11,0-0.06,0-0.1,0-0.22,0a14.19,14.19,0,0,1-2,.16c-0.7,0-1.4,0-2.11,0-1.41,0-2.82-.12-4.23-0.23q-4.24-.33-8.45-0.92c-1.4-.21-2.8-0.43-4.19-0.71-0.7-.14-1.39-0.29-2.07-0.47a13.88,13.88,0,0,1-2-.65,14.17,14.17,0,0,0,2,.75c0.68,0.21,1.37.4,2.06,0.57,1.38,0.35,2.77.65,4.17,0.92q4.19,0.82,8.44,1.35c1.41,0.18,2.83.33,4.26,0.45,0.71,0.06,1.43.1,2.15,0.12a15.3,15.3,0,0,0,2.22-.06,3.38,3.38,0,0,0,.66-0.14l0.14,0,0.2-.1a1.67,1.67,0,0,0,.35-0.26,1.47,1.47,0,0,0,.43-0.85,2.07,2.07,0,0,0-.05-0.79,6.33,6.33,0,0,0-1.15-2.12,20.21,20.21,0,0,0-1.45-1.67c-0.51-.53-1-1-1.58-1.53a0.65,0.65,0,0,0-.21-0.13l0,0-27.62-10.62c2.93-2.56,8-6.19,10.09-7.64a1.84,1.84,0,0,0,.44-0.44c7.2-.26,36.26-1.28,54-1.28s46.84,1,54,1.28a1.88,1.88,0,0,0,.44.44C-96.77,395.45-91.72,399.07-88.79,401.63ZM-82.32,390l-10,4c-1.13-.84-2.17-1.58-3-2.14,1.51-2,1.38-5.77,1.17-7.79,1.31-.11,3.6-0.27,5.94-0.27,1.35,0,2.56.05,3.58,0.16a2,2,0,0,1,1.52.83C-82.09,386-82.15,388.59-82.32,390Z" transform="translate(226.7 -363.54)"/><path class="cls-1" d="M-89.76,406.76c-0.79-.27-21.57,6.21-24.32,7.66,0,0-4.11,3.1-2.66,3.51s20-1.94,22-3S-86.81,407.77-89.76,406.76Z" transform="translate(226.7 -363.54)"/><path class="cls-1" d="M-113.67,407.59c-1.15.3-2.39,0.65-3.69,1.11a15.2,15.2,0,0,0-2,.83,4.5,4.5,0,0,0-1,.67,7.27,7.27,0,0,0-.72,1,14.77,14.77,0,0,1-3.15,3,10.35,10.35,0,0,1-1.9,1.09,4.23,4.23,0,0,1-1,.3h-0.51l-0.59,0c-0.8,0-1.56,0-2.33,0s-1.52,0-2.3,0l-4.56-.15-8.08-.33-6.29-.29v-0.15l-1.62.08-1.62-.08v0.15l-6.29.29-8.08.33-4.56.15c-0.79,0-1.53,0-2.3,0s-1.53.05-2.33,0l-0.59,0h-0.51a4.27,4.27,0,0,1-1-.3,10.38,10.38,0,0,1-1.9-1.09,14.72,14.72,0,0,1-3.15-3,7.63,7.63,0,0,0-.72-1,4.47,4.47,0,0,0-1-.67,15.15,15.15,0,0,0-2-.83c-1.3-.46-2.54-0.81-3.69-1.11-2.3-.6-4.24-1-5.6-1.28s-2.13-.41-2.13-0.41,0.77,0.19,2.1.54,3.24,0.89,5.48,1.63c1.12,0.37,2.33.8,3.56,1.33a14.71,14.71,0,0,1,1.81.91,3.61,3.61,0,0,1,.76.58,8.68,8.68,0,0,1,.54.84,15.84,15.84,0,0,0,3.2,3.51,12,12,0,0,0,2.08,1.38,5.87,5.87,0,0,0,1.26.48l0.09,0h0.28l0.3,0,0.59,0.06c0.77,0.1,1.6.11,2.4,0.16s1.62,0.08,2.39.11l4.58,0.15,8.11,0.2L-155,418V418l1.65,0h0.06l1.65,0V418l6.2-.11,8.11-.2,4.58-.15c0.77,0,1.59-.07,2.39-0.11s1.63-.06,2.4-0.16l0.59-.06,0.29,0h0.28l0.09,0a5.91,5.91,0,0,0,1.26-.48,11.9,11.9,0,0,0,2.08-1.38,15.83,15.83,0,0,0,3.2-3.51,8.34,8.34,0,0,1,.54-0.84,3.65,3.65,0,0,1,.76-0.58,14.71,14.71,0,0,1,1.81-.91c1.23-.53,2.44-1,3.56-1.33,2.24-.74,4.15-1.27,5.48-1.63s2.1-.54,2.1-0.54-0.78.14-2.14,0.41S-111.37,407-113.67,407.59Z" transform="translate(226.7 -363.54)"/><path class="cls-1" d="M-218.86,437.55s-1.89,8.56,0,11,20.3,2.28,22.88,0,1.2-10,1.2-10C-202.17,438.48-218.86,437.55-218.86,437.55Z" transform="translate(226.7 -363.54)"/><path class="cls-1" d="M-112.14,438.48s-1.38,7.76,1.21,10,21.06,2.41,23,0,0-11,0-11S-104.72,438.48-112.14,438.48Z" transform="translate(226.7 -363.54)"/></svg>