<?xml version="1.0" encoding="utf-8"?>
<!-- Generator: Adobe Illustrator 19.2.1, SVG Export Plug-In . SVG Version: 6.00 Build 0)  -->
<svg version="1.1" id="Ebene_1" xmlns="http://www.w3.org/2000/svg" xmlns:xlink="http://www.w3.org/1999/xlink" x="0px" y="0px"
	 viewBox="0 0 146.7 86.7" style="enable-background:new 0 0 146.7 86.7;" xml:space="preserve">
<style type="text/css">
	.st0{fill:#FFFFFF;}
</style>
<title>modell</title>
<path class="st0" d="M36.7,54.4c1.4-0.4-2.7-3.5-2.7-3.5c-2.7-1.5-23.5-7.9-24.3-7.7c-2.9,1,3.1,7,5,8.1S35.3,54.8,36.7,54.4z"/>
<path class="st0" d="M145.4,19.9c-0.7-1-1.8-1.6-3.1-1.7c-1.1-0.1-2.4-0.2-3.8-0.2c-3.7,0-7.1,0.4-7.3,0.4c-0.3,0-0.6,0.2-0.8,0.4
	c-0.2,0.2-0.3,0.5-0.2,0.8c0.4,2.2,0.4,5.5-0.4,7c-1.3-2-4-6.4-6.9-10.8c-8.5-12.7-10.7-13.2-11.7-13.4c-3.6-0.8-28.6-2-36-2.3V0
	l-1.9,0.1L71.5,0v0.1c-7.4,0.3-32.4,1.4-36,2.3c-1,0.2-3.2,0.8-11.7,13.4c-3,4.4-5.7,8.8-6.9,10.8c-0.8-1.5-0.8-4.8-0.4-7
	c0-0.3,0-0.6-0.2-0.8c-0.2-0.2-0.5-0.4-0.8-0.4c-0.1,0-3.6-0.4-7.3-0.4c-1.4,0-2.7,0.1-3.8,0.2c-1.2,0.1-2.3,0.7-3.1,1.7
	c-1.9,2.6-1.2,7.1-1.1,7.6c0.1,0.4,0.3,0.7,0.7,0.8l9.3,3.7c-2.2,1.6-4.2,3.4-6.1,5.3c-0.7,0.9-2.1,2.4-1.4,18.1
	c0.3,7.4,0.9,14.5,1,14.6L4,71.8l3.5-0.3c9.2,0.8,39.6,3,73.6,3c19.6,0,40.3-0.8,58.8-3l3.1,0.3l0.2-1.9c0-0.1,0.6-7.2,1-14.6
	c0.7-15.6-0.7-17.2-1.4-18.1c-1.9-2-3.9-3.7-6.1-5.3l9.3-3.7c0.4-0.1,0.6-0.4,0.7-0.8C146.5,26.9,147.3,22.5,145.4,19.9z M36.4,6.2
	c2.9-0.6,23.6-1.7,37-2.2c13.4,0.5,34.1,1.6,37,2.2c2.1,0.9,9.5,11.5,15.7,21.6c-8.9-0.3-34.7-1.2-51.6-1.2h-2.2
	c-16.8,0-42.7,0.9-51.6,1.2C26.9,17.7,34.3,7.1,36.4,6.2z M2.3,26.5c-0.2-1.4-0.2-3.9,0.8-5.2c0.4-0.5,0.9-0.8,1.5-0.8
	c1-0.1,2.2-0.2,3.6-0.2c2.3,0,4.6,0.2,5.9,0.3c-0.2,2-0.3,5.8,1.2,7.8c-0.8,0.6-1.8,1.3-3,2.1L2.3,26.5z M137.9,38.1l-27.6,10.6l0,0
	c-0.1,0-0.1,0.1-0.2,0.1c-0.6,0.5-1.1,1-1.6,1.5c-0.5,0.5-1,1.1-1.5,1.7c-0.5,0.6-0.9,1.3-1.2,2.1c-0.1,0.3-0.1,0.5-0.1,0.8
	c0,0.3,0.2,0.6,0.4,0.9c0.1,0.1,0.2,0.2,0.3,0.3l0.2,0.1h0.1c0.2,0.1,0.4,0.1,0.7,0.1c0.7,0.1,1.5,0.1,2.2,0.1
	c0.7,0,1.4-0.1,2.2-0.1c1.4-0.1,2.8-0.3,4.3-0.5c2.8-0.4,5.6-0.8,8.4-1.4c1.4-0.3,2.8-0.6,4.2-0.9c0.7-0.2,1.4-0.4,2.1-0.6
	c0.7-0.2,1.4-0.4,2-0.8c-0.6,0.3-1.3,0.5-2,0.6c-0.7,0.2-1.4,0.3-2.1,0.5c-1.4,0.3-2.8,0.5-4.2,0.7c-2.8,0.4-5.6,0.7-8.4,0.9
	c-1.4,0.1-2.8,0.2-4.2,0.2c-0.7,0-1.4,0-2.1,0c-0.7,0-1.3-0.1-2-0.2h-0.2h-0.1h-0.1h-0.1l0,0l-0.1-0.1c0,0,0-0.1,0-0.1
	c0-0.1,0-0.2,0-0.3c0.2-0.6,0.6-1.1,1-1.5c0.4-0.5,0.9-1,1.4-1.5c0.5-0.4,0.9-0.9,1.4-1.2l28.9-9.5c0.7,4,0.3,16.3-0.6,27.4
	c-4.6,0.5-9.4,1-14.3,1.4H29.2C19,69.1,11.3,68.5,7.5,68.2c-0.9-11-1.4-23.3-0.6-27.3l28.9,9.5c0.5,0.4,1,0.8,1.4,1.2
	c0.5,0.5,1,1,1.4,1.5c0.4,0.5,0.8,1,1,1.5c0,0.1,0,0.2,0,0.3c0,0,0,0.1,0,0.1L39.6,55l0,0h-0.1h-0.1h-0.1h-0.2
	c-0.7,0.1-1.3,0.2-2,0.2c-0.7,0-1.4,0-2.1,0c-1.4,0-2.8-0.1-4.2-0.2c-2.8-0.2-5.6-0.5-8.4-0.9c-1.4-0.2-2.8-0.4-4.2-0.7
	c-0.7-0.1-1.4-0.3-2.1-0.5c-0.7-0.2-1.4-0.4-2-0.6c0.6,0.3,1.3,0.6,2,0.8c0.7,0.2,1.4,0.4,2.1,0.6c1.4,0.4,2.8,0.6,4.2,0.9
	c2.8,0.5,5.6,1,8.4,1.4c1.4,0.2,2.8,0.3,4.3,0.5c0.7,0.1,1.4,0.1,2.1,0.1c0.7,0,1.5,0,2.2-0.1c0.2,0,0.4-0.1,0.7-0.1h0.1l0.2-0.1
	c0.1-0.1,0.2-0.2,0.4-0.3c0.2-0.2,0.4-0.5,0.4-0.9c0-0.3,0-0.5-0.1-0.8c-0.2-0.8-0.6-1.5-1.1-2.1c-0.5-0.6-0.9-1.1-1.4-1.7
	c-0.5-0.5-1-1-1.6-1.5c-0.1-0.1-0.1-0.1-0.2-0.1l0,0L9.1,38.1c2.9-2.6,8-6.2,10.1-7.6c0.2-0.1,0.3-0.3,0.4-0.4
	c7.2-0.3,36.3-1.3,54-1.3s46.8,1,54,1.3c0.1,0.2,0.3,0.3,0.4,0.4C129.9,31.9,135,35.5,137.9,38.1L137.9,38.1z M144.4,26.5l-10,4
	c-1.1-0.8-2.2-1.6-3-2.1c1.5-2,1.4-5.8,1.2-7.8c1.3-0.1,3.6-0.3,5.9-0.3c1.4,0,2.6,0,3.6,0.2c0.6,0,1.2,0.3,1.5,0.8
	C144.6,22.5,144.5,25,144.4,26.5z"/>
<path class="st0" d="M136.9,43.2c-0.8-0.3-21.6,6.2-24.3,7.7c0,0-4.1,3.1-2.7,3.5s20-1.9,22-3S139.9,44.2,136.9,43.2z"/>
<path class="st0" d="M113,44c-1.2,0.3-2.4,0.6-3.7,1.1c-0.7,0.2-1.4,0.5-2,0.8c-0.4,0.2-0.7,0.4-1,0.7c-0.3,0.3-0.5,0.6-0.7,1
	c-0.9,1.1-2,2.2-3.2,3c-0.6,0.4-1.2,0.8-1.9,1.1c-0.3,0.1-0.7,0.2-1,0.3h-0.5h-0.6c-0.8,0-1.6,0-2.3,0s-1.5,0-2.3,0l-4.6-0.1
	l-8.1-0.3l-6.3-0.3v-0.1l-1.6,0.1l-1.6-0.1v0.1l-6.3,0.3l-8.1,0.3L52.7,52c-0.8,0-1.5,0-2.3,0s-1.5,0-2.3,0h-0.6H47
	c-0.3-0.1-0.7-0.2-1-0.3c-0.7-0.3-1.3-0.7-1.9-1.1c-1.2-0.8-2.3-1.8-3.1-3c-0.2-0.4-0.5-0.7-0.7-1c-0.3-0.3-0.6-0.5-1-0.7
	c-0.6-0.3-1.3-0.6-2-0.8c-1.3-0.5-2.5-0.8-3.7-1.1c-2.3-0.6-4.2-1-5.6-1.3s-2.1-0.4-2.1-0.4s0.8,0.2,2.1,0.5s3.2,0.9,5.5,1.6
	c1.1,0.4,2.3,0.8,3.6,1.3c0.6,0.3,1.2,0.6,1.8,0.9c0.3,0.2,0.5,0.4,0.8,0.6c0.2,0.3,0.4,0.5,0.5,0.8c0.9,1.3,2,2.5,3.2,3.5
	c0.6,0.5,1.3,1,2.1,1.4c0.4,0.2,0.8,0.4,1.3,0.5h0.1H47h0.3l0.6,0.1c0.8,0.1,1.6,0.1,2.4,0.2s1.6,0.1,2.4,0.1l4.6,0.1l8.1,0.2
	l6.4,0.2l0,0h1.6h0.1h1.6l0,0l6.2-0.1l8.1-0.2l4.6-0.1c0.8,0,1.6-0.1,2.4-0.1s1.6-0.1,2.4-0.2l0.6-0.1h0.3h0.3h0.1
	c0.4-0.1,0.9-0.3,1.3-0.5c0.7-0.4,1.4-0.8,2.1-1.4c1.2-1,2.3-2.2,3.2-3.5c0.2-0.3,0.3-0.6,0.5-0.8c0.2-0.2,0.5-0.4,0.8-0.6
	c0.6-0.3,1.2-0.6,1.8-0.9c1.2-0.5,2.4-1,3.6-1.3c2.2-0.7,4.2-1.3,5.5-1.6s2.1-0.5,2.1-0.5s-0.8,0.1-2.1,0.4S115.3,43.5,113,44z"/>
<path class="st0" d="M7.8,74c0,0-1.9,8.6,0,11s20.3,2.3,22.9,0s1.2-10,1.2-10C24.5,74.9,7.8,74,7.8,74z"/>
<path class="st0" d="M114.6,74.9c0,0-1.4,7.8,1.2,10s21.1,2.4,23,0s0-11,0-11S122,74.9,114.6,74.9z"/>
<g>
	<path d="M-135.7,94.2c0,0-0.1,0.1-0.1,0.1c0.4-6.5,0.7-12.7,1.1-18.8c1.7-25.8-2.7-50.9-8.5-75.9c-0.4-1.8-1.3-3.6-2.3-5.2
		c-11.1-17.4-22.1-34.8-33.3-52.2c-7.3-11.2-17.8-16.9-31.1-17c-19.8-0.1-39.6,0-59.4-0.1c-2.2,0-3.4,0.7-4.4,2.7
		c-12.1,24.5-24.2,49-36.4,73.5c-0.6,1.2-1.2,2.4-1.3,3.7c-1.1,10.9-1.5,21.8,0.6,32.6c1.1,5.9,4.3,10.1,9.6,12.7
		c5.5,2.7,11,5.4,16.5,8C-272.6,64-263,72.4-257,84.5c2.4,4.9,3.8,10.2,5.9,16.1h105.9c0.4-0.1,0.9-0.2,1.4-0.2
		c0.4,0,0.8,0.1,1.2,0.1c1-0.2,2-0.3,3.1-0.2c0.8,0,1.6,0.1,2.4,0.1c0.3,0,0.6,0,0.8,0.1C-136.3,98.4-135.9,96.3-135.7,94.2z
		 M-265.1,24c-0.2,4.2-2.4,6.4-6.6,6.4c-5.5,0.1-11,0-16.5,0c-5.6,0-7.4-1.9-7.4-7.6c0-1.5,0-3,0-4.8h30.6
		C-265,20.3-265,22.2-265.1,24z M-299.4,1.3c0.6-1.3,0.9-2.3,1.4-3.3c10.4-20.2,20.9-40.5,31.2-60.8c1.2-2.3,2.5-3,5-2.9
		c15,0.1,30-0.1,45,0.1c13,0.1,23.6,5.4,30.9,16.1c11.1,16.2,21.6,32.8,32.4,49.3c0.2,0.3,0.2,0.7,0.6,1.5H-299.4z"/>
</g>
</svg>
