<svg id="Ebene_1" data-name="Ebene 1" xmlns="http://www.w3.org/2000/svg" viewBox="0 0 109.55 169.89"><defs><style>.cls-1{fill:none;stroke:#fff;stroke-miterlimit:10;}</style></defs><title>standort_auto</title><path class="cls-1" d="M-564.67,622.92c0.31-.48.52-0.78,0.72-1.09,3.33-5.32,6.71-10.62,10-16,10.46-17.08,20.47-34.41,29.33-52.38a197.58,197.58,0,0,0,11.74-28,44.86,44.86,0,0,0,2.48-12.3A68.6,68.6,0,0,0-513,492.32c-3.77-13.07-11.2-23.4-23-30.36a54.75,54.75,0,0,0-25.72-7.45c-12.1-.54-23.43,2.09-33.65,8.74s-16.95,16.11-20.54,27.75a64.2,64.2,0,0,0-2.83,23.94c0.37,4.83,1.88,9.44,3.48,14a244.47,244.47,0,0,0,13.74,30.8c10.57,20.53,22.37,40.34,34.72,59.83C-566.15,620.64-565.46,621.7-564.67,622.92Z" transform="translate(619.44 -453.95)"/><path class="cls-1" d="M-564.67,622.92c-0.79-1.22-1.48-2.28-2.16-3.35-12.35-19.5-24.15-39.3-34.72-59.83a244.47,244.47,0,0,1-13.74-30.8c-1.6-4.55-3.11-9.16-3.48-14A64.2,64.2,0,0,1-615.94,491c3.6-11.64,10.26-21.07,20.54-27.75s21.55-9.28,33.65-8.74A54.75,54.75,0,0,1-536,462c11.82,7,19.25,17.29,23,30.36a68.6,68.6,0,0,1,2.58,20.84,44.86,44.86,0,0,1-2.48,12.3,197.58,197.58,0,0,1-11.74,28c-8.87,18-18.87,35.31-29.33,52.38-3.28,5.36-6.65,10.65-10,16C-564.15,622.14-564.36,622.44-564.67,622.92Zm0.11-66.31a49,49,0,0,0,48.8-49.05,48.87,48.87,0,0,0-49.12-48.7,48.88,48.88,0,0,0-48.67,48.9A48.94,48.94,0,0,0-564.57,556.61Z" transform="translate(619.44 -453.95)"/></svg>