<svg id="Ebene_1" data-name="Ebene 1" xmlns="http://www.w3.org/2000/svg" viewBox="0 0 205 205"><defs><style>.cls-1{fill:#fff;}</style></defs><title>standort_suchen</title><path class="cls-1" d="M-123.1,451.65h11.21a13.08,13.08,0,0,0,1.74.36A99.34,99.34,0,0,1-54.49,473.5c21.37,16.92,34.22,38.93,38.32,66,0.46,3,.78,6.06,1.17,9.09v11.21a16,16,0,0,0-.38,1.94A97.55,97.55,0,0,1-29.82,607c-16.94,27.19-41.26,43.48-73,48.52-3,.48-6.05.79-9.08,1.18H-123.1a12.13,12.13,0,0,0-1.72-.37,98,98,0,0,1-47.79-15.89c-25.89-17-41.4-40.87-46.22-71.56-0.47-3-.78-6.05-1.17-9.08V548.54c0.44-3.49.75-7,1.33-10.48A101,101,0,0,1-190.08,482,100.44,100.44,0,0,1-132,452.79C-129,452.37-126.06,452-123.1,451.65ZM-210.68,554c-0.08,51.37,41.93,93.37,93.31,93.3,51.14-.07,92.7-41.6,93.06-93C-24,503.21-66,461.05-117.54,461-168.68,460.89-210.6,502.77-210.68,554Z" transform="translate(220 -451.65)"/><path class="cls-1" d="M-66.45,501.53l-46.09,122.81c-0.36-1-.63-1.67-0.83-2.34q-8.29-27.34-16.52-54.69a3.52,3.52,0,0,0-3.07-2.77q-27.7-6.14-55.36-12.42c-0.31-.07-0.6-0.18-1.47-0.45ZM-78,513.38l-89.2,36.27c13.32,3.42,26.5,6.41,39.7,9.31a3.2,3.2,0,0,1,2.78,2.55c2.77,9.46,5.66,18.88,8.52,28.31,1.34,4.43,2.71,8.84,4.07,13.26l0.46,0Z" transform="translate(220 -451.65)"/></svg>